M48
;DRILL file {KiCad 4.0.7} date Mon Jun  4 02:29:38 2018
;FORMAT={3:3/ absolute / metric / suppress leading zeros}
FMAT,2
METRIC,TZ
T1C0.400
T2C0.500
T3C1.000
T4C1.100
T5C1.400
T6C1.702
T7C3.988
%
G90
G05
M71
T1
X33338Y-124777
X34950Y-108230
X36053Y-104475
X37153Y-104675
X37603Y-123900
X38253Y-104823
X38750Y-123948
X39925Y-123850
X41078Y-120475
X41275Y-109175
X42400Y-108175
X43750Y-108275
X44850Y-108250
X45003Y-124100
X45720Y-118110
X46078Y-124075
X47625Y-123825
X47915Y-103965
X47933Y-106758
X48480Y-104530
X48575Y-106000
X49325Y-104700
X50025Y-107000
X50625Y-106000
X51100Y-113750
X51175Y-114850
X51200Y-118150
X51200Y-108852
X51225Y-119250
X51250Y-115950
X51250Y-117050
X51250Y-120350
X51275Y-111550
X51286Y-112650
X51875Y-109475
X55760Y-122180
X55780Y-123830
X57110Y-125500
X61913Y-121650
X88142Y-95992
X101453Y-96750
X103823Y-121920
X103823Y-125730
X104130Y-97950
X105720Y-95020
X123825Y-124777
T2
X31400Y-37100
X31400Y-38100
X31400Y-39100
X31400Y-56150
X31400Y-57150
X31400Y-58150
X31400Y-75200
X31400Y-76200
X31400Y-77200
X31400Y-94250
X31400Y-95250
X31400Y-96250
X44800Y-37100
X44800Y-38100
X44800Y-39100
X44800Y-56150
X44800Y-57150
X44800Y-58150
X44800Y-75200
X44800Y-76200
X44800Y-77200
X44800Y-94250
X44800Y-95250
X44800Y-96250
X50450Y-37100
X50450Y-38100
X50450Y-39100
X50450Y-56150
X50450Y-57150
X50450Y-58150
X50450Y-75200
X50450Y-76200
X50450Y-77200
X50450Y-94250
X50450Y-95250
X50450Y-96250
X63850Y-37100
X63850Y-38100
X63850Y-39100
X63850Y-56150
X63850Y-57150
X63850Y-58150
X63850Y-75200
X63850Y-76200
X63850Y-77200
X63850Y-94250
X63850Y-95250
X63850Y-96250
X69500Y-32338
X69500Y-33338
X69500Y-34338
X69500Y-51388
X69500Y-52388
X69500Y-53388
X69500Y-70438
X69500Y-71438
X69500Y-72438
X69500Y-89488
X69500Y-90488
X69500Y-91488
X82900Y-32338
X82900Y-33338
X82900Y-34338
X82900Y-51388
X82900Y-52388
X82900Y-53388
X82900Y-70438
X82900Y-71438
X82900Y-72438
X82900Y-89488
X82900Y-90488
X82900Y-91488
X88550Y-27575
X88550Y-28575
X88550Y-29575
X88550Y-46625
X88550Y-47625
X88550Y-48625
X88550Y-65675
X88550Y-66675
X88550Y-67675
X88550Y-84725
X88550Y-85725
X88550Y-86725
X88550Y-103775
X88550Y-104775
X88550Y-105775
X101950Y-27575
X101950Y-28575
X101950Y-29575
X101950Y-46625
X101950Y-47625
X101950Y-48625
X101950Y-65675
X101950Y-66675
X101950Y-67675
X101950Y-84725
X101950Y-85725
X101950Y-86725
X101950Y-103775
X101950Y-104775
X101950Y-105775
X107600Y-32338
X107600Y-33338
X107600Y-34338
X107600Y-51388
X107600Y-52388
X107600Y-53388
X107600Y-70438
X107600Y-71438
X107600Y-72438
X107600Y-89488
X107600Y-90488
X107600Y-91488
X107600Y-108538
X107600Y-109538
X107600Y-110538
X121000Y-32338
X121000Y-33338
X121000Y-34338
X121000Y-51388
X121000Y-52388
X121000Y-53388
X121000Y-70438
X121000Y-71438
X121000Y-72438
X121000Y-89488
X121000Y-90488
X121000Y-91488
X121000Y-108538
X121000Y-109538
X121000Y-110538
X126650Y-39005
X126650Y-40005
X126650Y-41005
X126650Y-58055
X126650Y-59055
X126650Y-60055
X126650Y-77105
X126650Y-78105
X126650Y-79105
X126650Y-96155
X126650Y-97155
X126650Y-98155
X126650Y-115205
X126650Y-116205
X126650Y-117205
X140050Y-39005
X140050Y-40005
X140050Y-41005
X140050Y-58055
X140050Y-59055
X140050Y-60055
X140050Y-77105
X140050Y-78105
X140050Y-79105
X140050Y-96155
X140050Y-97155
X140050Y-98155
X140050Y-115205
X140050Y-116205
X140050Y-117205
X145700Y-105680
X145700Y-106680
X145700Y-107680
X159100Y-105680
X159100Y-106680
X159100Y-107680
T3
X39053Y-110807
X39053Y-113348
X39053Y-115888
X39053Y-118427
T4
X36830Y-33020
X36830Y-52070
X36830Y-71120
X36830Y-90170
X39370Y-33020
X39370Y-52070
X39370Y-71120
X39370Y-90170
X55880Y-33020
X55880Y-52070
X55880Y-71120
X55880Y-90170
X58420Y-33020
X58420Y-52070
X58420Y-71120
X58420Y-90170
X63548Y-120015
X74930Y-28258
X74930Y-47308
X74930Y-66358
X74930Y-85408
X77470Y-28258
X77470Y-47308
X77470Y-66358
X77470Y-85408
X86948Y-120015
X93980Y-23495
X93980Y-42545
X93980Y-61595
X93980Y-80645
X93980Y-99695
X96520Y-23495
X96520Y-42545
X96520Y-61595
X96520Y-80645
X96520Y-99695
X113030Y-28258
X113030Y-47308
X113030Y-66358
X113030Y-85408
X113030Y-104458
X115570Y-28258
X115570Y-47308
X115570Y-66358
X115570Y-85408
X115570Y-104458
X132080Y-34925
X132080Y-53975
X132080Y-73025
X132080Y-92075
X132080Y-111125
X134620Y-34925
X134620Y-53975
X134620Y-73025
X134620Y-92075
X134620Y-111125
X151130Y-101600
X153670Y-101600
T5
X34290Y-40640
X34290Y-59690
X34290Y-78740
X34290Y-97790
X35560Y-42977
X35560Y-62027
X35560Y-81077
X35560Y-100127
X40640Y-42977
X40640Y-62027
X40640Y-81077
X40640Y-100127
X41910Y-40640
X41910Y-59690
X41910Y-78740
X41910Y-97790
X53340Y-40640
X53340Y-59690
X53340Y-78740
X53340Y-97790
X54610Y-42977
X54610Y-62027
X54610Y-81077
X54610Y-100127
X59690Y-42977
X59690Y-62027
X59690Y-81077
X59690Y-100127
X60960Y-40640
X60960Y-59690
X60960Y-78740
X60960Y-97790
X72390Y-35878
X72390Y-54928
X72390Y-73977
X72390Y-93027
X73660Y-38214
X73660Y-57264
X73660Y-76314
X73660Y-95364
X78740Y-38214
X78740Y-57264
X78740Y-76314
X78740Y-95364
X80010Y-35878
X80010Y-54928
X80010Y-73977
X80010Y-93027
X91440Y-31115
X91440Y-50165
X91440Y-69215
X91440Y-88265
X91440Y-107315
X92710Y-33452
X92710Y-52502
X92710Y-71552
X92710Y-90602
X92710Y-109652
X97790Y-33452
X97790Y-52502
X97790Y-71552
X97790Y-90602
X97790Y-109652
X99060Y-31115
X99060Y-50165
X99060Y-69215
X99060Y-88265
X99060Y-107315
X110490Y-35878
X110490Y-54928
X110490Y-73977
X110490Y-93027
X110490Y-112078
X111760Y-38214
X111760Y-57264
X111760Y-76314
X111760Y-95364
X111760Y-114414
X116840Y-38214
X116840Y-57264
X116840Y-76314
X116840Y-95364
X116840Y-114414
X118110Y-35878
X118110Y-54928
X118110Y-73977
X118110Y-93027
X118110Y-112078
X129540Y-42545
X129540Y-61595
X129540Y-80645
X129540Y-99695
X129540Y-118745
X130810Y-44882
X130810Y-63932
X130810Y-82982
X130810Y-102032
X130810Y-121082
X135890Y-44882
X135890Y-63932
X135890Y-82982
X135890Y-102032
X135890Y-121082
X137160Y-42545
X137160Y-61595
X137160Y-80645
X137160Y-99695
X137160Y-118745
X148590Y-109220
X149860Y-111557
X154940Y-111557
X156210Y-109220
T6
X33020Y-38100
X33020Y-57150
X33020Y-76200
X33020Y-95250
X43180Y-38100
X43180Y-57150
X43180Y-76200
X43180Y-95250
X52070Y-38100
X52070Y-57150
X52070Y-76200
X52070Y-95250
X62230Y-38100
X62230Y-57150
X62230Y-76200
X62230Y-95250
X71120Y-33338
X71120Y-52388
X71120Y-71438
X71120Y-90488
X81280Y-33338
X81280Y-52388
X81280Y-71438
X81280Y-90488
X90170Y-28575
X90170Y-47625
X90170Y-66675
X90170Y-85725
X90170Y-104775
X100330Y-28575
X100330Y-47625
X100330Y-66675
X100330Y-85725
X100330Y-104775
X109220Y-33338
X109220Y-52388
X109220Y-71438
X109220Y-90488
X109220Y-109538
X119380Y-33338
X119380Y-52388
X119380Y-71438
X119380Y-90488
X119380Y-109538
X128270Y-40005
X128270Y-59055
X128270Y-78105
X128270Y-97155
X128270Y-116205
X138430Y-40005
X138430Y-59055
X138430Y-78105
X138430Y-97155
X138430Y-116205
X147320Y-106680
X157480Y-106680
T7
X38100Y-38100
X38100Y-57150
X38100Y-76200
X38100Y-95250
X57150Y-38100
X57150Y-57150
X57150Y-76200
X57150Y-95250
X76200Y-33338
X76200Y-52388
X76200Y-71438
X76200Y-90488
X95250Y-28575
X95250Y-47625
X95250Y-66675
X95250Y-85725
X95250Y-104775
X114300Y-33338
X114300Y-52388
X114300Y-71438
X114300Y-90488
X114300Y-109538
X133350Y-40005
X133350Y-59055
X133350Y-78105
X133350Y-97155
X133350Y-116205
X152400Y-106680
T0
M30
