G04 #@! TF.FileFunction,Legend,Top*
%FSLAX46Y46*%
G04 Gerber Fmt 4.6, Leading zero omitted, Abs format (unit mm)*
G04 Created by KiCad (PCBNEW 4.0.7) date Mon Jun  4 02:29:31 2018*
%MOMM*%
%LPD*%
G01*
G04 APERTURE LIST*
%ADD10C,0.100000*%
%ADD11C,0.150000*%
%ADD12C,0.120000*%
G04 APERTURE END LIST*
D10*
D11*
X49052500Y-121800000D02*
X49052500Y-114300000D01*
X29052500Y-121800000D02*
X49052500Y-121800000D01*
X29052500Y-106800000D02*
X29052500Y-121800000D01*
X49052500Y-106800000D02*
X29052500Y-106800000D01*
X49052500Y-114300000D02*
X49052500Y-106800000D01*
D12*
X59760000Y-124430000D02*
X59760000Y-123500000D01*
X59760000Y-121270000D02*
X59760000Y-122200000D01*
X59760000Y-121270000D02*
X56600000Y-121270000D01*
X59760000Y-124430000D02*
X58300000Y-124430000D01*
D11*
X38614405Y-114902381D02*
X38614405Y-113902381D01*
X38852500Y-113902381D01*
X38995358Y-113950000D01*
X39090596Y-114045238D01*
X39138215Y-114140476D01*
X39185834Y-114330952D01*
X39185834Y-114473810D01*
X39138215Y-114664286D01*
X39090596Y-114759524D01*
X38995358Y-114854762D01*
X38852500Y-114902381D01*
X38614405Y-114902381D01*
X39566786Y-113997619D02*
X39614405Y-113950000D01*
X39709643Y-113902381D01*
X39947739Y-113902381D01*
X40042977Y-113950000D01*
X40090596Y-113997619D01*
X40138215Y-114092857D01*
X40138215Y-114188095D01*
X40090596Y-114330952D01*
X39519167Y-114902381D01*
X40138215Y-114902381D01*
X46754881Y-120983333D02*
X47754881Y-120650000D01*
X46754881Y-120316666D01*
X47659643Y-119411904D02*
X47707262Y-119459523D01*
X47754881Y-119602380D01*
X47754881Y-119697618D01*
X47707262Y-119840476D01*
X47612024Y-119935714D01*
X47516786Y-119983333D01*
X47326310Y-120030952D01*
X47183452Y-120030952D01*
X46992976Y-119983333D01*
X46897738Y-119935714D01*
X46802500Y-119840476D01*
X46754881Y-119697618D01*
X46754881Y-119602380D01*
X46802500Y-119459523D01*
X46850119Y-119411904D01*
X47659643Y-118411904D02*
X47707262Y-118459523D01*
X47754881Y-118602380D01*
X47754881Y-118697618D01*
X47707262Y-118840476D01*
X47612024Y-118935714D01*
X47516786Y-118983333D01*
X47326310Y-119030952D01*
X47183452Y-119030952D01*
X46992976Y-118983333D01*
X46897738Y-118935714D01*
X46802500Y-118840476D01*
X46754881Y-118697618D01*
X46754881Y-118602380D01*
X46802500Y-118459523D01*
X46850119Y-118411904D01*
X45452500Y-120461904D02*
X45404881Y-120557142D01*
X45404881Y-120699999D01*
X45452500Y-120842857D01*
X45547738Y-120938095D01*
X45642976Y-120985714D01*
X45833452Y-121033333D01*
X45976310Y-121033333D01*
X46166786Y-120985714D01*
X46262024Y-120938095D01*
X46357262Y-120842857D01*
X46404881Y-120699999D01*
X46404881Y-120604761D01*
X46357262Y-120461904D01*
X46309643Y-120414285D01*
X45976310Y-120414285D01*
X45976310Y-120604761D01*
X46404881Y-119985714D02*
X45404881Y-119985714D01*
X46404881Y-119414285D01*
X45404881Y-119414285D01*
X46404881Y-118938095D02*
X45404881Y-118938095D01*
X45404881Y-118700000D01*
X45452500Y-118557142D01*
X45547738Y-118461904D01*
X45642976Y-118414285D01*
X45833452Y-118366666D01*
X45976310Y-118366666D01*
X46166786Y-118414285D01*
X46262024Y-118461904D01*
X46357262Y-118557142D01*
X46404881Y-118700000D01*
X46404881Y-118938095D01*
X34334167Y-120149881D02*
X34334167Y-120864167D01*
X34286547Y-121007024D01*
X34191309Y-121102262D01*
X34048452Y-121149881D01*
X33953214Y-121149881D01*
X35334167Y-121149881D02*
X34762738Y-121149881D01*
X35048452Y-121149881D02*
X35048452Y-120149881D01*
X34953214Y-120292738D01*
X34857976Y-120387976D01*
X34762738Y-120435595D01*
X58904762Y-120897619D02*
X58809524Y-120850000D01*
X58714286Y-120754762D01*
X58571429Y-120611905D01*
X58476190Y-120564286D01*
X58380952Y-120564286D01*
X58428571Y-120802381D02*
X58333333Y-120754762D01*
X58238095Y-120659524D01*
X58190476Y-120469048D01*
X58190476Y-120135714D01*
X58238095Y-119945238D01*
X58333333Y-119850000D01*
X58428571Y-119802381D01*
X58619048Y-119802381D01*
X58714286Y-119850000D01*
X58809524Y-119945238D01*
X58857143Y-120135714D01*
X58857143Y-120469048D01*
X58809524Y-120659524D01*
X58714286Y-120754762D01*
X58619048Y-120802381D01*
X58428571Y-120802381D01*
X59809524Y-120802381D02*
X59238095Y-120802381D01*
X59523809Y-120802381D02*
X59523809Y-119802381D01*
X59428571Y-119945238D01*
X59333333Y-120040476D01*
X59238095Y-120088095D01*
M02*
